Coordinates
version=1
nRows=17
nColumns=27
inDegrees=yes

Units are S.I. units (second, meters, Newtons, ...)
If the header above contains a line with 'inDegrees', this indicates whether rotational values are in degrees (yes) or radians (no).

endheader
time	pelvis_rotation	pelvis_tilt	pelvis_list	pelvis_tx	pelvis_ty	pelvis_tz	hip_flexion_r	hip_adduction_r	hip_rotation_r	knee_angle_r	knee_rotation_r	knee_adduction_r	knee_angle_r_beta	ankle_angle_r	subtalar_angle_r	mtp_angle_r	hip_flexion_l	hip_adduction_l	hip_rotation_l	knee_angle_l	knee_rotation_l	knee_adduction_l	knee_angle_l_beta	ankle_angle_l	subtalar_angle_l	mtp_angle_l
      4.78500000	      4.55524439	    -31.26599476	      1.79373330	     -0.00897591	      0.42552487	     -1.14121172	    130.96285480	    -47.06719608	     27.23831990	    109.93410437	      0.00000000	      0.00000000	      1.91871208	     17.08499238	      0.00000000	      0.00000000	    131.19612072	    -40.54581386	     22.82408323	    104.14000555	      0.00000000	      0.00000000	      1.81758598	      3.72250984	      0.00000000	      0.00000000
      4.79000000	      4.54318601	    -31.15823682	      1.82561142	     -0.00864839	      0.42427168	     -1.14125903	    131.08025820	    -46.98430083	     27.48162333	    110.09773090	      0.00000000	      0.00000000	      1.92156790	     17.17289217	      0.00000000	      0.00000000	    131.26183883	    -40.56638273	     22.94975417	    104.30585362	      0.00000000	      0.00000000	      1.82048057	      3.80754495	      0.00000000	      0.00000000
      4.79500000	      4.55216926	    -31.09854341	      1.90701545	     -0.00830334	      0.42307278	     -1.14129914	    131.28758472	    -46.88928046	     27.77998445	    110.26957195	      0.00000000	      0.00000000	      1.92456710	     17.24832151	      0.00000000	      0.00000000	    131.32827335	    -40.61640691	     23.00238010	    104.47131763	      0.00000000	      0.00000000	      1.82336847	      3.96043428	      0.00000000	      0.00000000
      4.80000000	      4.54982881	    -30.96559713	      1.86855300	     -0.00808028	      0.42189480	     -1.14137080	    131.30978141	    -46.88060229	     27.93023712	    110.39966463	      0.00000000	      0.00000000	      1.92683764	     17.30096473	      0.00000000	      0.00000000	    131.41681082	    -40.56119356	     23.19558831	    104.61686162	      0.00000000	      0.00000000	      1.82590869	      3.94810500	      0.00000000	      0.00000000
      4.80500000	      4.57599661	    -30.88187239	      1.86156985	     -0.00782911	      0.42075233	     -1.14144233	    131.42007050	    -46.88625357	     28.12127388	    110.54078587	      0.00000000	      0.00000000	      1.92930067	     17.36674111	      0.00000000	      0.00000000	    131.52616046	    -40.51223773	     23.33939484	    104.76868569	      0.00000000	      0.00000000	      1.82855852	      3.99538189	      0.00000000	      0.00000000
      4.81000000	      4.62073041	    -30.79259484	      1.88327284	     -0.00759130	      0.41968475	     -1.14149718	    131.54385094	    -46.89602896	     28.33781489	    110.67560928	      0.00000000	      0.00000000	      1.93165378	     17.41407246	      0.00000000	      0.00000000	    131.59396357	    -40.46933998	     23.43210347	    104.90894658	      0.00000000	      0.00000000	      1.83100653	      4.02951772	      0.00000000	      0.00000000
      4.81500000	      4.53176336	    -30.77158219	      1.73882663	     -0.00741757	      0.41863053	     -1.14156709	    131.52131623	    -46.87069394	     28.29721924	    110.78306574	      0.00000000	      0.00000000	      1.93352925	     17.52931290	      0.00000000	      0.00000000	    131.89308122	    -40.44563464	     23.75551622	    105.06302475	      0.00000000	      0.00000000	      1.83369570	      4.08175835	      0.00000000	      0.00000000
      4.82000000	      4.54478530	    -30.70355632	      1.76611269	     -0.00726092	      0.41763038	     -1.14163155	    131.66764538	    -46.84164120	     28.50364960	    110.90449865	      0.00000000	      0.00000000	      1.93564866	     17.50857923	      0.00000000	      0.00000000	    131.97511152	    -40.45054698	     23.83987008	    105.18582487	      0.00000000	      0.00000000	      1.83583897	      4.10300345	      0.00000000	      0.00000000
      4.82500000	      4.52507037	    -30.66583019	      1.70802847	     -0.00712833	      0.41667875	     -1.14170288	    131.73739577	    -46.84346366	     28.58090488	    111.00935846	      0.00000000	      0.00000000	      1.93747881	     17.54546089	      0.00000000	      0.00000000	    132.16432128	    -40.42651874	     24.02495946	    105.31411232	      0.00000000	      0.00000000	      1.83807801	      4.11194146	      0.00000000	      0.00000000
      4.83000000	      4.53981941	    -30.62189007	      1.73845516	     -0.00699991	      0.41577411	     -1.14176271	    131.89576596	    -46.82327515	     28.77164649	    111.11905141	      0.00000000	      0.00000000	      1.93939331	     17.58616645	      0.00000000	      0.00000000	    132.26173440	    -40.44316024	     24.09074061	    105.42452710	      0.00000000	      0.00000000	      1.84000511	      4.12312094	      0.00000000	      0.00000000
      4.83500000	      4.56794909	    -30.63460716	      1.70766495	     -0.00692231	      0.41486565	     -1.14185593	    132.07120789	    -46.86333682	     28.90109793	    111.21733679	      0.00000000	      0.00000000	      1.94110871	     17.58202845	      0.00000000	      0.00000000	    132.47243091	    -40.38560757	     24.22827785	    105.54751868	      0.00000000	      0.00000000	      1.84215172	      4.15678941	      0.00000000	      0.00000000
      4.84000000	      4.53943987	    -30.63630222	      1.71375784	     -0.00691765	      0.41408269	     -1.14190820	    132.21799752	    -46.80546381	     29.02310562	    111.30030071	      0.00000000	      0.00000000	      1.94255671	     17.59887503	      0.00000000	      0.00000000	    132.62908095	    -40.41765134	     24.32458406	    105.63901739	      0.00000000	      0.00000000	      1.84374867	      4.11851628	      0.00000000	      0.00000000
      4.84500000	      4.47797575	    -30.63610532	      1.58147744	     -0.00689721	      0.41330998	     -1.14195954	    132.21556544	    -46.82538059	     28.95803370	    111.37493201	      0.00000000	      0.00000000	      1.94385927	     17.67702127	      0.00000000	      0.00000000	    132.91598815	    -40.40213379	     24.57745816	    105.74095875	      0.00000000	      0.00000000	      1.84552788	      4.07134703	      0.00000000	      0.00000000
      4.85000000	      4.48112936	    -30.64267959	      1.69399645	     -0.00692660	      0.41256425	     -1.14203092	    132.48940224	    -46.71920168	     29.22214119	    111.46489465	      0.00000000	      0.00000000	      1.94542941	     17.58981195	      0.00000000	      0.00000000	    132.98649749	    -40.48894892	     24.53599325	    105.82918863	      0.00000000	      0.00000000	      1.84706779	      4.08617516	      0.00000000	      0.00000000
      4.85500000	      4.52242748	    -30.68203949	      1.67247608	     -0.00695460	      0.41190387	     -1.14211244	    132.66626528	    -46.77307354	     29.32205050	    111.53078202	      0.00000000	      0.00000000	      1.94657936	     17.60615202	      0.00000000	      0.00000000	    133.17500213	    -40.42551996	     24.62129403	    105.91008972	      0.00000000	      0.00000000	      1.84847978	      4.06136919	      0.00000000	      0.00000000
      4.86000000	      4.52973714	    -30.71332451	      1.65283397	     -0.00701888	      0.41126978	     -1.14219986	    132.82137408	    -46.78241958	     29.40728723	    111.59172164	      0.00000000	      0.00000000	      1.94764296	     17.58613627	      0.00000000	      0.00000000	    133.36292717	    -40.40033620	     24.71194336	    105.99136010	      0.00000000	      0.00000000	      1.84989821	      4.02539714	      0.00000000	      0.00000000
      4.86500000	      4.53478976	    -30.74681410	      1.67639897	     -0.00711788	      0.41068387	     -1.14229342	    133.01033610	    -46.75215730	     29.53472968	    111.64838833	      0.00000000	      0.00000000	      1.94863198	     17.56847770	      0.00000000	      0.00000000	    133.50509443	    -40.41263757	     24.74480706	    106.06292881	      0.00000000	      0.00000000	      1.85114732	      4.02056974	      0.00000000	      0.00000000
